<?xml version="1.0" encoding="utf-8"?>
<!-- Generator: Adobe Illustrator 15.0.0, SVG Export Plug-In . SVG Version: 6.00 Build 0)  -->
<!DOCTYPE svg PUBLIC "-//W3C//DTD SVG 1.1//EN" "http://www.w3.org/Graphics/SVG/1.1/DTD/svg11.dtd">
<svg version="1.1" id="Ebene_1" xmlns="http://www.w3.org/2000/svg" xmlns:xlink="http://www.w3.org/1999/xlink" x="0px" y="0px"
	 width="208px" height="67px" viewBox="0 0 208 67" enable-background="new 0 0 208 67" xml:space="preserve">
<g>
	<path fill-rule="evenodd" clip-rule="evenodd" fill="#1C1C20" d="M44.299,41.697V21.909h-4.394v4.394H24.512
		c-1.223,0-2.181,0.958-2.181,2.213v13.181c0,1.22,0.958,2.179,2.181,2.179h17.574C43.341,43.876,44.299,42.917,44.299,41.697
		L44.299,41.697z M39.905,39.582h-13.18v-8.984h13.18V39.582L39.905,39.582z"/>
	<path fill-rule="evenodd" clip-rule="evenodd" fill="#1C1C20" d="M75.052,41.697V28.516c0-1.255-0.958-2.213-2.213-2.213H55.265
		c-1.222,0-2.18,0.958-2.18,2.213v13.181c0,1.22,0.958,2.179,2.18,2.179h17.574C74.093,43.876,75.052,42.917,75.052,41.697
		L75.052,41.697z M70.657,39.582h-13.18v-8.984h13.18V39.582L70.657,39.582z"/>
	<path fill="#1C1C20" d="M105.374,41.697v-4.924l-4.393,0.529v2.279h-11v-8.984h11v-4.295h-11v-4.394h-4.393v4.394h-2.181v4.295
		h2.181v11.1c0,1.387,0.924,2.179,2.213,2.179h15.361C104.385,43.876,105.374,42.917,105.374,41.697L105.374,41.697z"/>
	<polygon fill="#1C1C20" points="134.81,43.876 134.81,39.714 120.307,39.714 134.81,30.266 134.81,26.303 112.842,26.303 
		112.842,30.465 127.344,30.465 112.842,39.912 112.842,43.876 134.81,43.876 	"/>
	<path fill-rule="evenodd" clip-rule="evenodd" fill="#1C1C20" d="M147.988,26.303v-4.394h-4.395v4.394H147.988L147.988,26.303z
		 M147.988,43.876v-15.36h-4.395v15.36H147.988L147.988,43.876z"/>
	<polygon fill="#1C1C20" points="161.168,43.876 161.168,21.909 156.773,21.909 156.773,43.876 161.168,43.876 	"/>
	<polygon fill="#1C1C20" points="174.349,43.876 174.349,21.909 169.954,21.909 169.954,43.876 174.349,43.876 	"/>
	<path fill-rule="evenodd" clip-rule="evenodd" fill="#1C1C20" d="M205.102,41.697V28.516c0-1.255-0.96-2.213-2.214-2.213h-17.575
		c-1.221,0-2.179,0.958-2.179,2.213v3.6l4.393-0.528v-1.322h13.181v3.073h-15.395c-1.156,0-2.179,0.859-2.179,2.047v6.311
		c0,1.22,0.958,2.179,2.179,2.179h17.575C204.142,43.876,205.102,42.917,205.102,41.697L205.102,41.697z M200.707,39.912h-13.181
		v-2.609h13.181V39.912L200.707,39.912z"/>
	<g>
		<g>
			<defs>
				<path id="SVGID_1_" d="M12.505,41.67c0,0,2.363-0.722,2.277,0.432c-0.087,1.153-0.231,2.307-0.231,2.307
					s-0.144,1.268-1.239,1.757c-1.095,0.49-3.17,1.096-3.17,1.096l-1.615,0.434c0,0-0.806,0.171,0.202,0.258
					c1.009,0.086,5.102,0.52,5.102,0.52s2.94,0.143,4.756,0.26c1.815,0.115,4.813,0.461,5.85,0.546
					c1.037,0.087,4.929,0.548,4.929,0.548l1.67,0.174l0.548,0.115c0,0,1.47,0.028,0.403,0.721c-1.066,0.692-1.873,1.095-2.91,1.47
					c-1.038,0.376-2.451,1.094-5.534,1.066c-3.083-0.028-8.705-0.116-8.705-0.116s-5.071-0.086-5.304-0.086
					c-0.229,0-3.659-0.23-4.437-0.546c-0.779-0.318-2.71-0.895-2.796-2.911c-0.086-2.018-0.317-2.596,0.115-3.836
					c0.433-1.237,1.182-2.073,2.796-2.42c1.615-0.345,3.142-0.604,4.641-1.008S12.505,41.67,12.505,41.67L12.505,41.67z"/>
			</defs>
			<use xlink:href="#SVGID_1_"  overflow="visible" fill-rule="evenodd" clip-rule="evenodd" fill="#BB172F"/>
			<clipPath id="SVGID_2_">
				<use xlink:href="#SVGID_1_"  overflow="visible"/>
			</clipPath>
		</g>
	</g>
</g>
</svg>
